<svg viewBox="0 0 250 242" fill="none" xmlns="http://www.w3.org/2000/svg">
<path d="M215.245 139.234C207.395 139.248 199.65 141.567 192.596 146.017C190.387 141.281 188.681 136.183 187.525 130.86C186.86 126.688 186.706 122.406 187.069 118.172C187.832 113.513 188.822 108.92 190.033 104.422C189.989 103.834 189.489 101.054 184.462 100.962C179.436 100.87 175.106 102.196 174.642 103.915C173.769 107.054 173.068 110.269 172.544 113.535C168.384 126.794 163.264 139.516 157.251 151.531C153.882 144.395 152.497 135.989 153.323 127.7C154.086 123.041 155.076 118.448 156.287 113.95C156.242 113.362 155.742 110.582 150.716 110.49C145.69 110.397 141.36 111.724 140.895 113.443C140.431 115.161 139.842 119.21 138.797 123.063C137.753 126.915 125.558 162.12 122.362 171.197C120.719 175.811 119.299 179.572 118.3 182.109C118.252 182.274 118.192 182.433 118.121 182.582L116.755 185.95V186.008C116.068 187.6 115.336 189.076 114.97 189.076C114.331 185.781 114.362 182.328 115.059 179.053C116.844 166.837 121.219 147.851 121.174 147.193C121.174 146.836 121.996 143.537 118.344 141.83C117.497 141.309 116.546 141.14 115.622 141.347C114.698 141.554 113.846 142.125 113.184 142.983C112.863 142.983 112.639 143.987 112.639 143.987C112.639 143.987 116.612 122.636 105.06 122.636C100.561 123.805 96.2888 126.125 92.4942 129.459C88.6995 132.793 85.4593 137.073 82.9639 142.049C79.8571 144.229 73.2417 148.889 66.162 153.907C63.4838 155.856 60.6805 157.805 58.0825 159.674C57.904 159.443 57.7165 159.144 57.5379 158.913C43.4769 139.557 17.6313 125.9 18.7472 100.005C19.1579 90.5692 21.6666 65.7924 68.3761 35.6981C106.819 11.2213 137.414 18.0038 142.708 33.0451C150.287 54.5229 126.317 94.3987 86.5975 100.178C82.2033 101.329 77.665 101.19 73.3181 99.7709C68.9711 98.3514 64.9268 95.6875 61.484 91.9764C59.386 89.0235 59.0646 88.8505 58.2879 89.4388C57.0112 90.3269 57.8325 92.9799 58.2879 94.5141C59.8031 98.057 61.8526 101.172 64.3152 103.674C66.7778 106.176 69.6036 108.015 72.6257 109.083C88.2512 113.445 104.542 111.359 119.201 103.119C143.306 91.0882 162.054 57.6373 156.555 29.6193C151.028 1.18605 114.505 -8.19175 79.9374 7.7032C58.2856 17.1165 38.2794 31.9436 21.0595 51.3393C2.01682 74.3512 -0.991804 94.3411 0.240212 102.727C4.70404 132.464 36.4062 151.807 49.0924 166.168C48.5192 166.589 47.9418 167.001 47.3604 167.402C41.0128 171.474 16.8189 187.819 10.757 205.098C3.90948 224.707 11.8551 238.722 17.1046 240.614C25.0145 243.06 33.3183 242.254 40.8567 238.309C48.3951 234.363 54.7918 227.475 59.1538 218.605C62.8683 211.249 65.1515 202.841 65.809 194.098C66.4666 185.356 65.4789 176.538 62.9302 168.394C62.8872 168.263 62.8268 168.142 62.7517 168.037L67.7244 164.265C70.7459 161.957 73.8059 159.734 76.902 157.598C75.0435 164.524 73.9524 171.755 73.6613 179.076C73.0302 190.296 75.688 201.413 81.1069 210.22C81.9315 211.137 82.8887 211.833 83.9232 212.269C84.9576 212.704 86.0487 212.87 87.1331 212.757C92.4897 212.757 94.9448 206.99 97.632 200.138C100.917 191.764 103.881 182.029 103.881 182.029C103.881 182.029 100.185 208.339 110.229 208.339C113.88 208.339 117.576 202.203 119.228 199.112V199.169L119.505 198.581L120.094 197.347V197.231C121.558 193.932 124.844 186.435 129.727 173.989C136.03 157.944 142.101 137.885 142.101 137.885C142.686 142.293 143.494 146.647 144.52 150.919C145.991 156.098 147.729 161.142 149.725 166.018C148.261 168.671 147.35 170.148 147.35 170.148L147.395 170.205C146.207 172.212 144.931 174.393 143.511 176.515C139.288 182.514 135.369 188.86 131.78 195.513C131.247 196.63 131.064 197.968 131.268 199.254C131.472 200.54 132.048 201.677 132.878 202.434C134.758 203.697 136.9 204.154 138.994 203.737C142.149 203.507 145.252 202.59 148.172 201.026C150.993 199.744 153.654 197.937 156.073 195.663C158.565 193.431 160.572 190.409 161.899 186.886C163.227 183.363 163.83 179.458 163.652 175.546C163.371 170.619 162.397 165.799 160.777 161.324C161.233 160.493 161.67 159.674 162.099 158.844C167.174 149.055 171.749 138.848 175.794 128.288C176.379 132.696 177.187 137.05 178.213 141.322C179.426 145.797 180.919 150.137 182.677 154.299C176.838 160.103 172.238 167.733 169.312 176.469C166.438 187.208 168.669 192.041 172.883 193.16C175.189 193.365 177.495 192.755 179.552 191.395C182.578 190.11 185.428 188.218 187.998 185.789C190.708 183.722 192.978 180.818 194.603 177.337C196.229 173.855 197.158 169.906 197.309 165.845C197.107 161.792 196.398 157.807 195.211 154.045C202.917 150.156 211.272 148.916 219.459 150.446C241.189 153.745 245.483 171.267 244.662 178.649C244.276 181.266 243.462 183.746 242.273 185.923C241.085 188.099 239.549 189.922 237.77 191.268C236.261 192.502 235.761 192.917 235.895 193.806C236.073 195.109 236.787 195.04 238.082 194.809C241.357 193.494 244.247 190.927 246.37 187.447C248.492 183.967 249.749 179.737 249.974 175.315C250.661 158.013 237.877 139.038 215.272 139.211L215.245 139.234ZM47.5836 212.227C40.37 222.377 30.3264 226.207 25.9876 222.966C21.3273 219.505 23.1575 204.51 32.0138 193.759C37.2672 187.649 42.9454 182.178 48.9763 177.415C50.0298 176.584 51.5832 175.408 53.4401 173.954L53.9401 173.597L55.0382 172.708C56.6204 179.558 56.7639 186.828 55.4538 193.772C54.1438 200.717 51.4275 207.086 47.5836 212.227ZM100.087 166.087C97.5785 173.989 92.329 194.232 89.1329 193.102C86.3921 192.156 84.6691 176.815 88.5883 161.658C90.5672 154.362 93.4496 147.529 97.1232 141.426C101.051 135.762 105.39 133.871 106.435 136.178C105.482 146.5 103.342 156.581 100.087 166.087ZM143.413 192.871C142.36 193.575 141.36 194.025 140.904 193.702C140.583 193.471 141.36 192.548 141.36 192.548C141.36 192.548 146.797 184.993 148.939 181.579C150.171 179.572 151.618 177.219 153.189 174.554V175.315C153.189 184.336 146.431 190.414 143.422 192.894L143.413 192.871ZM176.838 183.021C176.062 182.317 176.195 179.952 178.802 172.582C180.615 167.848 183.147 163.635 186.248 160.193C186.723 161.939 186.971 163.775 186.98 165.626C187.015 169.566 186.04 173.41 184.207 176.558C182.374 179.707 179.786 181.983 176.847 183.032L176.838 183.021Z" fill="#CD6799"/>
</svg>
