<svg width="93" height="92" viewBox="0 0 93 92" fill="none" xmlns="http://www.w3.org/2000/svg">
<path d="M17.4679 78.2029L11.0078 5.75H81.9916L75.5228 78.1914L46.4566 86.25L17.4679 78.2029Z" fill="#E44F26"/>
<path d="M46.5 80.0922L69.9888 73.5803L75.5145 11.6758H46.5V80.0922Z" fill="#F1662A"/>
<path d="M46.5 38.5456H34.7412L33.9305 29.4462H46.5V20.5596H24.2188L24.4315 22.9458L26.6136 47.4322H46.5V38.5456ZM46.5 61.6232L46.4598 61.6347L36.564 58.9638L35.9315 51.8769H27.0104L28.2553 65.8264L46.4598 70.8807L46.5 70.8692V61.6232Z" fill="#EBEBEB"/>
<path d="M46.4688 38.5456V47.4322H57.411L56.3818 58.9581L46.4688 61.6318V70.8778L64.6876 65.8264L64.8199 64.3257L66.9071 40.9318L67.1256 38.5456H46.4688ZM46.4688 20.5596V29.4462H67.9335L68.1117 27.4509L68.5171 22.9458L68.7299 20.5596H46.4688Z" fill="white"/>
</svg>
