<svg width="93" height="92" viewBox="0 0 93 92" fill="none" xmlns="http://www.w3.org/2000/svg">
<path d="M17.4651 78.2029L11.0078 5.75H81.9858L75.5199 78.1914L46.4537 86.25L17.4651 78.2029Z" fill="#1572B6"/>
<path d="M46.5 80.0922L69.9888 73.5803L75.5145 11.6758H46.5V80.0922Z" fill="#33A9DC"/>
<path d="M46.5 37.9245H58.2588L59.0695 28.8251H46.5V19.9385H68.7812L68.5685 22.3219L66.3864 46.8111H46.5V37.9245Z" fill="white"/>
<path d="M46.5521 61.0021L46.5119 61.0136L36.6161 58.3398L35.9836 51.2529H27.0625L28.3074 65.2053L46.509 70.2596L46.5521 70.2481V61.0021Z" fill="#EBEBEB"/>
<path d="M57.5031 46.4346L56.4336 58.3342L46.5234 61.0079V70.254L64.7394 65.2054L64.8746 63.7047L66.4184 46.4346H57.5031Z" fill="white"/>
<path d="M46.5346 19.9385V28.8251H25.0698L24.8916 26.827L24.4862 22.3219L24.2734 19.9385H46.5346ZM46.5029 37.9245V46.8111H36.7308L36.5526 44.813L36.1501 40.3079L35.9373 37.9245H46.5029Z" fill="#EBEBEB"/>
</svg>
