<svg width="256" height="256" viewBox="0 0 256 256" fill="none" xmlns="http://www.w3.org/2000/svg">
<path d="M0 0H256V256H0V0Z" fill="#F7DF1E"/>
<path d="M67.3135 213.932L86.9035 202.076C90.6835 208.777 94.1215 214.447 102.368 214.447C110.273 214.447 115.259 211.355 115.259 199.327V117.529H139.315V199.667C139.315 224.584 124.71 235.926 103.4 235.926C84.1545 235.926 72.9835 225.959 67.3125 213.93M152.382 211.354L171.97 200.013C177.127 208.434 183.83 214.62 195.686 214.62C205.655 214.62 212.01 209.636 212.01 202.762C212.01 194.514 205.481 191.592 194.483 186.782L188.47 184.202C171.113 176.815 159.6 167.535 159.6 147.945C159.6 129.901 173.347 116.153 194.828 116.153C210.122 116.153 221.119 121.481 229.023 135.4L210.292 147.43C206.167 140.041 201.701 137.12 194.826 137.12C187.78 137.12 183.313 141.588 183.313 147.43C183.313 154.647 187.781 157.57 198.091 162.038L204.104 164.615C224.554 173.38 236.068 182.315 236.068 202.419C236.068 224.073 219.056 235.929 196.201 235.929C173.861 235.929 159.427 225.275 152.382 211.355" fill="black"/>
</svg>
