<svg width="250" height="250" viewBox="0 0 250 250" fill="none" xmlns="http://www.w3.org/2000/svg">
<path d="M0 0H250V250H0V0Z" fill="#F03E2F"/>
<path d="M76.9871 64.7717C76.9871 86.2522 90.4891 99.0354 117.522 105.774L146.167 112.299C171.751 118.073 187.329 132.412 187.329 155.772C187.518 165.976 184.145 175.927 177.79 183.912C177.79 160.606 165.518 148.014 135.917 140.44L107.792 134.157C85.2684 129.108 67.8856 117.321 67.8856 91.9456C67.775 82.1215 70.9818 72.5473 76.9871 64.7717Z" fill="white"/>
<path d="M160.199 150.053C172.418 157.733 177.773 168.473 177.773 183.887C167.662 196.614 149.895 203.756 129.014 203.756C93.8633 203.756 69.2637 186.76 63.7969 157.223H97.5527C101.898 170.783 113.406 177.067 128.766 177.067C147.516 177.067 159.98 167.239 160.227 149.998M94.5449 96.6174C88.9863 93.3836 84.409 88.7024 81.3008 83.0725C78.2131 77.4832 76.7244 71.1514 76.998 64.7717C86.7559 52.1506 103.729 44.4456 124.42 44.4456C160.227 44.4456 180.943 63.0256 186.057 89.1799H153.584C150.004 78.8674 141.039 70.8401 124.693 70.8401C107.229 70.8401 95.3105 80.8284 94.627 96.6174" fill="#F9B1AB"/>
</svg>
