<svg viewBox="0 0 250 246" fill="none" xmlns="http://www.w3.org/2000/svg">
<path d="M125.001 147.437C137.329 147.437 147.323 136.386 147.323 122.754C147.323 109.121 137.329 98.0698 125.001 98.0698C112.673 98.0698 102.68 109.121 102.68 122.754C102.68 136.386 112.673 147.437 125.001 147.437Z" fill="#00D8FF"/>
<path d="M125 179.348C98.1708 180.065 71.4089 176.066 45.7143 167.499C33.8448 163.339 22.7744 156.784 13.0625 148.167C9.35652 145.223 6.27028 141.428 4.01555 137.041C1.76083 132.654 0.390979 127.78 0 122.753C0 106.432 16.2143 90.4367 43.375 79.9708C69.7565 70.6971 97.3207 66.2026 125 66.6613C152.31 66.2393 179.505 70.6526 205.554 79.7338C216.985 83.7637 227.68 90.0015 237.143 98.1578C240.785 100.964 243.825 104.622 246.047 108.872C248.269 113.123 249.619 117.861 250 122.753C250 139.715 231.875 156.905 202.679 167.588C177.482 175.876 151.284 179.842 125 179.348ZM125 78.47C98.5189 78.0786 72.1502 82.3513 46.8839 91.1278C21.8839 100.774 10.6786 113.965 10.6786 122.723C10.6786 131.886 22.7232 146.291 49.1696 156.293C73.7507 164.447 99.3447 168.243 125 167.539C150.146 168.036 175.214 164.274 199.33 156.382C226.786 146.321 239.286 131.896 239.286 122.753C238.835 119.615 237.801 116.615 236.249 113.942C234.697 111.269 232.66 108.98 230.268 107.222C221.801 99.9858 212.247 94.4576 202.045 90.8909C177.125 82.2393 151.116 78.0461 125 78.47Z" fill="#00D8FF"/>
<path d="M74.2856 245.865C70.1204 245.971 66.0044 244.853 62.357 242.626C49.5713 234.471 45.1427 210.952 50.5088 179.702C56.4253 149.797 66.6767 121.146 80.8659 94.8594C94.176 68.4883 111.216 44.6419 131.339 24.2243C140.207 15.2859 150.436 8.15564 161.553 3.16415C165.575 1.08024 169.961 0 174.402 0C178.842 0 183.229 1.08024 187.25 3.16415C200.544 11.6356 204.946 37.5832 198.741 70.8865C192.642 99.1698 182.657 126.252 169.134 151.188C156.292 177.247 139.789 200.886 120.241 221.221C111.052 230.509 100.387 237.837 88.7856 242.834C84.1411 244.74 79.2388 245.765 74.2856 245.865ZM90.1159 100.724C76.5811 125.895 66.7558 153.288 61.0088 181.875C56.0713 210.656 60.8124 227.964 67.7052 232.368C74.8481 236.939 92.1874 232.605 113.241 212.265C131.902 192.784 147.654 170.157 159.911 145.224C172.865 121.385 182.444 95.4927 188.312 68.4478C194.152 37.0994 189.107 17.9053 181.946 13.3437C179.262 12.2066 176.394 11.6975 173.524 11.8488C170.653 12 167.842 12.8083 165.268 14.2225C155.372 18.7381 146.274 25.1488 138.393 33.1599C119.167 52.7172 102.89 75.5462 90.1784 100.784L90.1159 100.724Z" fill="#00D8FF"/>
<path d="M175.676 245.993C163.578 245.993 148.212 237.897 132.212 222.682C111.736 202.079 94.4078 177.949 80.8991 151.227C66.8877 125.303 56.7175 97.0666 50.774 67.5888C48.1964 54.6199 47.7188 41.2482 49.3633 28.0948C49.7435 23.2154 51.0871 18.4876 53.2993 14.2449C55.5116 10.0021 58.5386 6.34774 62.1669 3.5394C75.4437 -4.96169 97.9705 3.77636 120.962 26.3472C140.074 46.3133 156.304 69.4026 169.087 94.8101C183.089 120.129 193.366 147.747 199.533 176.632C202.222 190.077 202.636 203.956 200.756 217.567C200.309 222.587 198.885 227.441 196.583 231.795C194.28 236.149 191.154 239.901 187.417 242.794C183.829 244.993 179.777 246.097 175.676 245.993ZM90.1401 145.283C103.099 170.821 119.652 193.914 139.176 213.697C159.256 232.802 175.185 236.91 182.033 232.457C189.176 227.865 194.444 209.126 189.015 178.804C183.068 151.227 173.211 124.864 159.81 100.695C147.612 76.3775 132.12 54.2681 113.872 35.1346C92.2294 13.8868 74.6758 9.13768 67.524 13.719C65.295 15.7221 63.4657 18.2146 62.1518 21.0391C60.8378 23.8635 60.0677 26.9586 59.8901 30.1288C58.4705 41.8593 58.933 53.7749 61.2562 65.3278C66.9732 93.518 76.7271 120.517 90.149 145.303L90.1401 145.283Z" fill="#00D8FF"/>
</svg>
