<svg width="18" height="91" viewBox="0 0 18 91" fill="none" xmlns="http://www.w3.org/2000/svg">
<path fill-rule="evenodd" clip-rule="evenodd" d="M17.665 16.3786C17.2056 17.22 16.446 17.2462 15.9683 16.4372L9 4.63628L2.03173 16.4372C1.55401 17.2462 0.794356 17.22 0.335004 16.3786C-0.124348 15.5372 -0.109453 14.1992 0.368273 13.3902L7.75241 0.885032C8.44921 -0.295014 9.5508 -0.295009 10.2476 0.885032L17.6317 13.3902C18.1095 14.1992 18.1243 15.5372 17.665 16.3786ZM17.665 34.8718C17.2056 35.7132 16.446 35.7394 15.9683 34.9304L9 23.1295L2.03173 34.9304C1.55401 35.7394 0.794355 35.7132 0.335003 34.8718C-0.124349 34.0304 -0.109454 32.6924 0.368272 31.8834L7.75241 19.3782C8.44921 18.1982 9.5508 18.1982 10.2476 19.3782L17.6317 31.8834C18.1095 32.6924 18.1243 34.0304 17.665 34.8718ZM15.9683 53.4236C16.446 54.2326 17.2056 54.2064 17.665 53.365C18.1243 52.5236 18.1095 51.1856 17.6317 50.3766L10.2476 37.8714C9.5508 36.6914 8.44921 36.6914 7.7524 37.8714L0.368272 50.3766C-0.109455 51.1856 -0.12435 52.5236 0.335002 53.365C0.794354 54.2064 1.55401 54.2326 2.03173 53.4236L9 41.6227L15.9683 53.4236ZM17.665 71.8582C17.2056 72.6996 16.446 72.7258 15.9683 71.9168L9 60.1159L2.03173 71.9168C1.55401 72.7258 0.794353 72.6996 0.335001 71.8582C-0.12435 71.0168 -0.109456 69.6788 0.368271 68.8698L7.7524 56.3646C8.4492 55.1846 9.5508 55.1846 10.2476 56.3646L17.6317 68.8698C18.1095 69.6788 18.1243 71.0168 17.665 71.8582ZM15.9683 90.41C16.446 91.219 17.2056 91.1928 17.665 90.3514C18.1243 89.51 18.1095 88.172 17.6317 87.363L10.2476 74.8578C9.55079 73.6778 8.4492 73.6778 7.7524 74.8578L0.36827 87.363C-0.109457 88.172 -0.124351 89.51 0.335001 90.3514C0.794353 91.1928 1.554 91.219 2.03173 90.41L9 78.6091L15.9683 90.41Z" fill="white" fill-opacity="0.3"/>
</svg>
