<svg width="165" height="127" viewBox="0 0 165 127" fill="none" xmlns="http://www.w3.org/2000/svg">
<path fill-rule="evenodd" clip-rule="evenodd" d="M135.919 66.8771L137.377 66.5499L138.211 65.3104L164.314 26.5096C165.235 25.1406 164.91 23.5647 163.588 22.9898C162.267 22.4149 160.449 23.0587 159.528 24.4278L134.258 61.9891L90.0882 71.9078L88.6307 72.2351L87.7969 73.4746L62.5276 111.036L18.3574 120.955C16.7475 121.316 15.4879 122.777 15.5441 124.217C15.6002 125.657 16.9509 126.531 18.5608 126.17L64.1885 115.924L65.6461 115.597L66.4799 114.357L91.7492 76.7959L135.919 66.8771ZM120.579 44.4413L122.036 44.114L122.87 42.8745L148.973 4.07377C149.894 2.70471 149.569 1.12884 148.248 0.553951C146.926 -0.0209372 145.108 0.622864 144.187 1.99191L118.918 39.5532L74.7474 49.4719L73.2899 49.7992L72.4561 51.0387L47.1868 88.6L3.01661 98.5187C1.40668 98.8802 0.147107 100.341 0.203274 101.781C0.25944 103.221 1.61009 104.096 3.22004 103.734L48.8478 93.488L50.3053 93.1607L51.1391 91.9213L76.4084 54.36L120.579 44.4413Z" fill="white" fill-opacity="0.15"/>
</svg>
