<svg width="500" height="500" viewBox="0 0 500 500" fill="none" xmlns="http://www.w3.org/2000/svg">
<path d="M151.807 2.07469C153.406 1.36628 155.014 0.674643 156.63 0H343.37C344.986 0.674643 346.594 1.36628 348.193 2.07469H151.807Z" fill="white" fill-opacity="0.15"/>
<path d="M114.23 22.8216C115.272 22.1222 116.319 21.4306 117.372 20.7469H382.629C383.681 21.4306 384.728 22.1222 385.77 22.8216H114.23Z" fill="white" fill-opacity="0.15"/>
<path d="M87.4304 43.5685C88.2152 42.8719 89.0042 42.1804 89.7974 41.4938H410.203C410.996 42.1804 411.785 42.8719 412.57 43.5685H87.4304Z" fill="white" fill-opacity="0.15"/>
<path d="M66.6034 64.3154C67.2254 63.6202 67.8511 62.9287 68.4804 62.2407H431.52C432.149 62.9287 432.775 63.6202 433.397 64.3154H66.6034Z" fill="white" fill-opacity="0.15"/>
<path d="M49.8812 85.0622C50.3841 84.368 50.8904 83.6764 51.3999 82.9876H448.6C449.11 83.6764 449.616 84.368 450.119 85.0622H49.8812Z" fill="white" fill-opacity="0.15"/>
<path d="M36.3088 105.809C36.7169 105.115 37.128 104.424 37.5422 103.734H462.458C462.872 104.424 463.283 105.115 463.691 105.809H36.3088Z" fill="white" fill-opacity="0.15"/>
<path d="M25.3251 126.556C25.6532 125.863 25.9843 125.171 26.3183 124.481H473.682C474.016 125.171 474.347 125.863 474.675 126.556H25.3251Z" fill="white" fill-opacity="0.15"/>
<path d="M16.5725 147.303C16.8305 146.61 17.0913 145.918 17.3549 145.228H482.645C482.909 145.918 483.17 146.61 483.428 147.303H16.5725Z" fill="white" fill-opacity="0.15"/>
<path d="M9.81166 168.05C10.0062 167.357 10.2034 166.665 10.4033 165.975H489.597C489.797 166.665 489.994 167.357 490.188 168.05H9.81166Z" fill="white" fill-opacity="0.15"/>
<path d="M4.87778 188.797C5.01337 188.104 5.15163 187.413 5.29253 186.722H494.707C494.848 187.413 494.987 188.104 495.122 188.797H4.87778Z" fill="white" fill-opacity="0.15"/>
<path d="M1.65676 209.544C1.73662 208.851 1.81912 208.16 1.90424 207.469H498.096C498.181 208.16 498.263 208.851 498.343 209.544H1.65676Z" fill="white" fill-opacity="0.15"/>
<path d="M0.0708063 230.29C0.0970712 229.598 0.125953 228.907 0.157443 228.216H499.843C499.874 228.907 499.903 229.598 499.929 230.29H0.0708063Z" fill="white" fill-opacity="0.15"/>
<path d="M0.0708063 251.037C0.0445942 250.346 0.0209888 249.655 0 248.963H500C499.979 249.655 499.955 250.346 499.929 251.037H0.0708063Z" fill="white" fill-opacity="0.15"/>
<path d="M1.65676 271.784C1.57709 271.093 1.50003 270.402 1.42561 269.71H498.574C498.5 270.402 498.423 271.093 498.343 271.784H1.65676Z" fill="white" fill-opacity="0.15"/>
<path d="M4.87778 292.531C4.74258 291.841 4.61003 291.149 4.48013 290.456H495.52C495.39 291.149 495.257 291.841 495.122 292.531H4.87778Z" fill="white" fill-opacity="0.15"/>
<path d="M9.81166 313.278C9.61784 312.588 9.42671 311.896 9.23828 311.203H490.762C490.573 311.896 490.382 312.588 490.188 313.278H9.81166Z" fill="white" fill-opacity="0.15"/>
<path d="M16.5725 334.025C16.3156 333.335 16.0614 332.643 15.81 331.95H484.19C483.939 332.643 483.684 333.335 483.428 334.025H16.5725Z" fill="white" fill-opacity="0.15"/>
<path d="M25.3251 354.772C24.9985 354.082 24.6749 353.39 24.3541 352.697H475.646C475.325 353.39 475.001 354.082 474.675 354.772H25.3251Z" fill="white" fill-opacity="0.15"/>
<path d="M36.3088 375.519C35.9032 374.829 35.5006 374.138 35.101 373.444H464.899C464.499 374.138 464.097 374.829 463.691 375.519H36.3088Z" fill="white" fill-opacity="0.15"/>
<path d="M49.8812 396.266C49.3821 395.577 48.8862 394.885 48.3936 394.191H451.606C451.114 394.885 450.618 395.577 450.119 396.266H49.8812Z" fill="white" fill-opacity="0.15"/>
<path d="M66.6033 417.012C65.9876 416.324 65.3753 415.633 64.7667 414.938H435.233C434.625 415.633 434.012 416.324 433.397 417.012H66.6033Z" fill="white" fill-opacity="0.15"/>
<path d="M87.4304 437.759C86.6566 437.073 85.8869 436.381 85.1214 435.685H414.879C414.113 436.381 413.343 437.073 412.57 437.759H87.4304Z" fill="white" fill-opacity="0.15"/>
<path d="M114.23 458.506C113.211 457.822 112.197 457.131 111.189 456.432H388.811C387.803 457.131 386.789 457.822 385.77 458.506H114.23Z" fill="white" fill-opacity="0.15"/>
<path d="M151.807 479.253C150.281 478.577 148.762 477.885 147.251 477.178H352.749C351.238 477.885 349.72 478.577 348.193 479.253H151.807Z" fill="white" fill-opacity="0.15"/>
<path d="M281.789 497.925C271.379 499.294 260.769 500 250 500C239.231 500 228.621 499.294 218.211 497.925H281.789Z" fill="white" fill-opacity="0.15"/>
</svg>
