<svg width="260" height="159" viewBox="0 0 260 159" fill="none" xmlns="http://www.w3.org/2000/svg">
<path fill-rule="evenodd" clip-rule="evenodd" d="M229.321 7.64239C230.447 10.1639 233.404 11.2954 235.925 10.1696C238.447 9.04388 239.578 6.08717 238.452 3.56564C237.327 1.0441 234.37 -0.0873885 231.848 1.03837C229.327 2.16414 228.195 5.12085 229.321 7.64239ZM183.665 28.0261C184.791 30.5477 187.747 31.6792 190.269 30.5534C192.79 29.4276 193.922 26.4709 192.796 23.9494C191.67 21.4279 188.714 20.2964 186.192 21.4221C183.671 22.5479 182.539 25.5046 183.665 28.0261ZM144.612 50.9371C142.091 52.0629 139.134 50.9314 138.008 48.4099C136.883 45.8884 138.014 42.9316 140.536 41.8059C143.057 40.6801 146.014 41.8116 147.14 44.3331C148.265 46.8547 147.134 49.8114 144.612 50.9371ZM92.3521 68.7936C93.4779 71.3152 96.4346 72.4467 98.9561 71.3209C101.478 70.1951 102.609 67.2384 101.483 64.7169C100.358 62.1954 97.4009 61.0639 94.8794 62.1896C92.3578 63.3154 91.2263 66.2721 92.3521 68.7936ZM53.2998 91.7046C50.7782 92.8304 47.8215 91.6989 46.6957 89.1774C45.57 86.6559 46.7015 83.6991 49.223 82.5734C51.7445 81.4476 54.7012 82.5791 55.827 85.1006C56.9528 87.6222 55.8213 90.5789 53.2998 91.7046ZM1.03939 109.561C2.16515 112.083 5.12187 113.214 7.6434 112.088C10.1649 110.963 11.2964 108.006 10.1707 105.484C9.04489 102.963 6.08818 101.831 3.56665 102.957C1.04512 104.083 -0.0863783 107.04 1.03939 109.561ZM256.309 55.826C253.787 56.9518 250.831 55.8203 249.705 53.2987C248.579 50.7772 249.711 47.8205 252.232 46.6947C254.754 45.569 257.71 46.7005 258.836 49.222C259.962 51.7435 258.83 54.7002 256.309 55.826ZM204.049 73.6825C205.174 76.204 208.131 77.3355 210.653 76.2098C213.174 75.084 214.306 72.1273 213.18 69.6057C212.054 67.0842 209.097 65.9527 206.576 67.0785C204.054 68.2042 202.923 71.161 204.049 73.6825ZM164.996 96.5935C162.475 97.7193 159.518 96.5878 158.392 94.0662C157.266 91.5447 158.398 88.588 160.919 87.4622C163.441 86.3365 166.398 87.468 167.523 89.9895C168.649 92.511 167.518 95.4677 164.996 96.5935ZM112.736 114.45C113.862 116.972 116.818 118.103 119.34 116.977C121.861 115.851 122.993 112.895 121.867 110.373C120.741 107.852 117.785 106.72 115.263 107.846C112.742 108.972 111.61 111.928 112.736 114.45ZM73.6835 137.361C71.162 138.487 68.2053 137.355 67.0795 134.834C65.9537 132.312 67.0852 129.355 69.6068 128.23C72.1283 127.104 75.085 128.235 76.2108 130.757C77.3365 133.279 76.205 136.235 73.6835 137.361ZM21.4231 155.217C22.5489 157.739 25.5056 158.871 28.0271 157.745C30.5487 156.619 31.6802 153.662 30.5544 151.141C29.4286 148.619 26.4719 147.488 23.9504 148.613C21.4289 149.739 20.2974 152.696 21.4231 155.217Z" fill="white" fill-opacity="0.25"/>
</svg>
