<svg width="169" height="130" viewBox="0 0 169 130" fill="none" xmlns="http://www.w3.org/2000/svg">
<path fill-rule="evenodd" clip-rule="evenodd" d="M62.2645 21.9591L63.1655 23.1016L76.0952 39.4958L96.5073 43.8879L97.9298 44.1939L98.8308 45.3364L111.76 61.7307L132.173 66.1227L133.595 66.4288L134.496 67.5713L147.426 83.9655L167.838 88.3576L168.499 92.4732L146.664 87.7751L145.242 87.469L144.34 86.3265L131.411 69.9323L110.999 65.5402L109.576 65.2342L108.675 64.0917L95.7456 47.6974L75.3334 43.3054L73.911 42.9993L73.0099 41.8569L60.0803 25.4626L39.6682 21.0706L38.2457 20.7645L37.3447 19.622L23.514 2.08529L27.5003 0.866735L40.4299 17.261L60.8421 21.653L62.2645 21.9591ZM50.6397 40.6057L51.5407 41.7481L64.4703 58.1424L84.8825 62.5344L86.3049 62.8405L87.206 63.983L100.136 80.3772L120.548 84.7693L121.97 85.0754L122.871 86.2178L135.801 102.612L156.213 107.004L156.874 111.12L135.039 106.422L133.617 106.116L132.716 104.973L119.786 88.5788L99.3739 84.1868L97.9514 83.8807L97.0504 82.7383L84.1208 66.344L63.7086 61.952L62.2861 61.6459L61.3851 60.5034L48.4555 44.1092L28.0433 39.7171L26.6208 39.4111L25.7198 38.2686L11.8892 20.7319L15.8754 19.5133L28.805 35.9076L49.2172 40.2996L50.6397 40.6057ZM39.9158 60.3947L39.0148 59.2522L37.5924 58.9462L17.1802 54.5541L4.25057 38.1599L0.264331 39.3784L14.095 56.9152L14.996 58.0576L16.4185 58.3637L36.8306 62.7557L49.7602 79.15L50.6613 80.2925L52.0837 80.5985L72.4959 84.9906L85.4255 101.385L86.3265 102.527L87.749 102.833L108.161 107.225L121.091 123.62L121.992 124.762L123.414 125.068L145.249 129.766L144.588 125.651L124.176 121.259L111.246 104.864L110.345 103.722L108.923 103.416L88.5107 99.0238L75.5811 82.6296L74.6801 81.4871L73.2576 81.181L52.8455 76.789L39.9158 60.3947Z" fill="#FF9D00"/>
</svg>
