<svg width="93" height="67" viewBox="0 0 93 67" fill="none" xmlns="http://www.w3.org/2000/svg">
<path d="M16.2737 21.0647C19.1805 20.0068 21.8653 19.6255 24.3282 19.9209C26.7911 20.2164 28.9341 21.1533 30.7572 22.7316C32.5803 24.3099 33.9889 26.4647 34.9831 29.1961C35.9681 31.9024 36.2696 34.4461 35.8875 36.827C35.4964 39.1828 34.4524 41.2655 32.7556 43.075C31.0497 44.8594 28.7433 46.2806 25.8366 47.3385L18.0559 50.1705L8.49302 23.8967L16.2737 21.0647ZM25.0431 45.1585C28.7016 43.8269 31.1365 41.8623 32.3478 39.2646C33.575 36.6329 33.5639 33.6005 32.3144 30.1675C31.0557 26.7094 29.1105 24.3667 26.4787 23.1395C23.8629 21.8781 20.7257 21.9132 17.0672 23.2448L11.9176 25.1191L19.8936 47.0327L25.0431 45.1585Z" fill="#EEE1D7"/>
<path d="M44.3682 17.9387L51.6054 37.8226C52.335 39.8273 52.3094 41.667 51.5284 43.3418C50.7383 44.9915 49.3159 46.1903 47.2611 46.9382C45.1311 47.7134 43.1946 47.6946 41.4514 46.8818C39.7242 46.0348 38.4593 44.5087 37.6567 42.3035L40.3255 41.3322C40.8704 42.7514 41.6453 43.7889 42.6502 44.4448C43.6802 45.0915 44.9344 45.1458 46.4129 44.6077C47.8162 44.097 48.7056 43.305 49.0812 42.2318C49.4568 41.1586 49.4211 40.0081 48.9742 38.7803L41.7371 18.8964L44.3682 17.9387Z" fill="#DF4E57"/>
<path d="M73.9698 16.6254L83.5327 42.8992L80.9015 43.8569L76.4279 31.5657L62.1822 36.7507L66.6558 49.0419L64.0247 49.9996L54.4618 23.7258L57.0929 22.7681L61.3887 34.5706L75.6344 29.3856L71.3386 17.5831L73.9698 16.6254Z" fill="#EEE1D7"/>
</svg>
