<svg width="245" height="25" viewBox="0 0 245 25" fill="none" xmlns="http://www.w3.org/2000/svg">
<path d="M5.31561 10.172C7.23381 10.172 9.24336 10.0661 11.1616 9.96011C11.9837 9.96011 12.7144 9.85415 13.5365 9.85415C17.0075 9.64223 20.4786 9.43032 23.9496 9.2184C28.1514 9.00648 32.2618 8.68861 36.4636 8.47669C42.4009 8.05285 48.3382 7.73498 54.2755 7.31114C55.6457 7.20518 57.0158 7.20518 58.386 7.09923C61.857 6.88731 65.328 6.67539 68.7991 6.56943C72.2701 6.35752 75.7412 6.1456 79.2122 6.03964C80.5823 5.93368 81.9525 5.82772 83.3226 5.82772C88.8032 5.61581 94.3752 5.40389 99.8558 5.19197C103.235 5.08601 106.615 4.98005 110.086 4.76814C111.456 4.76814 112.735 4.66218 114.105 4.66218C119.403 4.55622 124.792 4.45026 130.09 4.3443C135.388 4.23834 140.595 4.13239 145.893 4.02643C147.263 4.02643 148.633 4.02643 150.094 4.02643C153.566 4.02643 156.945 4.02643 160.416 4.02643C165.805 4.02643 171.103 4.02643 176.493 3.92047C178.228 3.92047 179.964 3.92047 181.699 3.92047C185.353 3.92047 189.007 3.92047 192.66 3.92047C192.934 3.92047 193.3 3.92047 193.574 3.92047C185.353 4.02643 177.041 4.13239 168.82 4.3443C165.349 4.45026 161.969 4.45026 158.498 4.55622C157.037 4.55622 155.484 4.55622 154.022 4.66218C148.998 4.76814 144.066 4.98005 139.042 5.08601C133.287 5.29793 127.533 5.40389 121.778 5.61581C120.773 5.61581 119.86 5.72176 118.855 5.72176C115.749 5.93368 112.735 6.03964 109.629 6.25156C103.418 6.56943 97.2068 6.88731 90.9955 7.20518C90.082 7.20518 89.1686 7.31114 88.2552 7.4171C85.2408 7.62902 82.1352 7.9469 79.1209 8.15881C73.6403 8.58265 68.251 9.00648 62.7704 9.43032C61.3089 9.53627 59.7561 9.74819 58.2946 9.85415C54.8236 10.172 51.3525 10.4899 47.8815 10.9137C43.497 11.3376 39.0212 11.7614 34.6368 12.1852C28.5168 12.821 22.3054 13.4567 16.1854 14.0925C14.7239 14.1985 13.2625 14.4104 11.7096 14.5163C9.06067 14.8342 6.41172 15.1521 3.76277 15.47C3.48874 15.47 3.21471 15.6819 3.21471 16.1057C3.21471 16.4236 3.48874 16.7415 3.76277 16.7415C4.76755 16.7415 5.68098 16.8474 6.68575 16.8474C6.50307 17.3772 6.41172 17.6951 6.41172 18.013C6.41172 19.1785 7.23381 20.2381 8.32993 20.2381C15.9114 19.7083 23.4015 19.0725 30.983 18.6487C37.5597 18.3308 44.1364 17.907 50.7131 17.5891C57.9293 17.1653 65.2367 16.7415 72.4528 16.4236C74.7364 16.3176 77.02 16.2117 79.3035 15.9997C79.9429 15.9997 80.5823 15.8938 81.3131 15.8938C93.005 15.5759 104.697 15.1521 116.389 14.8342C122.6 14.6223 128.903 14.4104 135.114 14.3044C137.398 14.1985 139.59 14.1985 141.874 14.0925C153.84 13.8806 165.805 13.6687 177.771 13.4567C182.887 13.3508 188.002 13.2448 193.117 13.1389C197.502 13.0329 201.886 13.0329 206.271 12.821C209.924 12.715 213.487 12.5031 217.14 12.3972C218.967 12.2912 220.794 12.2912 222.53 12.1852C226.64 11.8674 230.75 11.5495 234.861 11.2316C234.587 11.6554 234.587 12.2912 234.678 12.715C234.77 13.2448 235.044 13.6687 235.5 13.8806C235.866 14.0925 236.414 14.3044 236.779 14.0925C237.693 13.6687 238.606 13.2448 239.428 12.821C239.428 12.821 239.428 12.821 239.337 12.821C239.428 12.821 239.428 12.715 239.519 12.715C239.611 12.715 239.702 12.6091 239.702 12.6091H239.611C240.067 12.3972 240.524 12.1852 241.072 11.8674C241.529 11.6554 242.077 11.3376 242.534 11.1257C243.082 10.8078 243.539 10.4899 244.087 10.172C244.635 9.85415 245 9.00648 245 8.26477C245 7.84094 244.909 7.52306 244.726 7.09923C244.543 6.67539 244.087 6.1456 243.63 6.03964C243.173 5.93368 242.716 5.82772 242.26 5.82772C242.168 5.82772 242.077 5.82772 241.986 5.82772C241.712 5.82772 241.346 5.82772 241.072 5.93368C240.341 6.03964 239.702 6.1456 238.971 6.1456C238.423 6.1456 237.875 6.25156 237.236 6.25156C235.683 6.35752 234.221 6.46347 232.669 6.67539C232.303 6.67539 231.847 6.78135 231.481 6.78135C231.664 6.56943 231.755 6.35752 231.755 6.1456C231.847 5.93368 231.847 5.72176 231.847 5.50985C231.847 5.40389 231.847 5.19197 231.938 5.08601C231.938 4.8741 231.938 4.66218 231.847 4.55622C231.847 4.55622 231.938 4.55622 231.938 4.45026C232.212 4.23834 232.486 4.02643 232.669 3.60259C232.851 3.28472 232.943 2.86088 232.943 2.43705C232.943 2.01321 232.851 1.69534 232.669 1.2715C232.577 1.16554 232.486 0.953627 232.395 0.847669C232.121 0.529793 231.847 0.423834 231.573 0.317876C231.024 0.105959 230.385 0 229.746 0C229.198 0 228.741 0 228.193 0C227.462 0 226.731 0 226.001 0C224.996 0 223.9 0 222.895 0C220.155 0 217.414 0 214.674 0C212.116 0 209.468 0 206.91 0C204.535 0 202.251 0 199.876 0C190.468 0 181.151 0.105959 171.743 0.211917C164.709 0.317876 157.676 0.423834 150.643 0.423834C147.537 0.423834 144.34 0.529793 141.234 0.635752C134.201 0.847669 127.167 0.953627 120.134 1.16554C118.124 1.16554 116.115 1.2715 114.105 1.2715C112.918 1.2715 111.822 1.37746 110.634 1.37746C103.692 1.69534 96.7501 2.01321 89.808 2.33109C87.7071 2.43705 85.6062 2.54301 83.414 2.64897C82.2265 2.64897 81.0391 2.75492 79.8516 2.86088C72.9095 3.28472 66.0588 3.70855 59.1167 4.13239C55.5543 4.3443 51.9919 4.55622 48.4296 4.8741C42.3096 5.29793 36.1896 5.72176 30.1609 6.25156C24.863 6.67539 19.5651 6.99327 14.2672 7.31114C13.4451 7.4171 12.6231 7.4171 11.7096 7.52306C10.3395 7.62902 8.96933 7.62902 7.59918 7.73498C6.41172 8.15881 5.13292 8.15881 3.94546 8.15881C3.85412 7.73498 3.48874 7.4171 3.21471 7.52306C2.39263 7.52306 1.66188 7.62902 0.839792 7.73498C0.474419 7.84094 0.109047 8.05285 0.0177036 8.47669C-0.0736395 9.00648 0.20039 9.53627 0.565762 9.64223C0.931135 9.74819 1.29651 9.85415 1.66188 9.96011C2.02725 10.0661 2.30128 10.0661 2.66665 10.0661C3.58009 10.172 4.40217 10.172 5.31561 10.172ZM219.059 6.78135C220.155 6.78135 221.342 6.78135 222.438 6.78135C222.53 7.09923 222.712 7.31114 222.895 7.52306C222.438 7.52306 221.982 7.62902 221.616 7.62902C220.794 7.62902 219.972 7.73498 219.15 7.73498C215.496 7.84094 211.934 8.05285 208.28 8.15881C206.636 8.26477 204.992 8.37073 203.348 8.37073C200.79 8.37073 198.141 8.47669 195.583 8.47669C189.646 8.58265 183.8 8.68861 177.863 8.79456C166.354 9.00648 154.936 9.2184 143.426 9.43032C135.206 9.53627 126.985 9.85415 118.764 10.172C106.432 10.5959 94.0098 10.9137 81.6785 11.3376C79.2122 11.4435 76.7459 11.5495 74.2797 11.7614C67.2463 12.1852 60.2128 12.5031 53.1794 12.9269C46.3287 13.3508 39.3866 13.6687 32.5359 14.0925C31.8965 14.0925 31.2571 14.1985 30.6177 14.1985C32.4445 13.9865 34.3627 13.8806 36.1896 13.6687C42.6749 13.1389 49.1603 12.5031 55.6457 11.9733C57.9293 11.7614 60.2128 11.5495 62.4051 11.3376C63.5925 11.2316 64.78 11.1257 65.8761 11.1257C72.7268 10.7018 79.4862 10.172 86.2456 9.74819C87.5244 9.64223 88.8946 9.53627 90.1734 9.43032C92.0916 9.32436 94.0098 9.2184 95.8367 9.2184C102.779 8.90052 109.721 8.58265 116.663 8.26477C118.216 8.15881 119.769 8.15881 121.23 8.05285C121.595 8.05285 122.052 8.05285 122.418 8.05285C123.514 8.05285 124.61 8.05285 125.615 7.9469C132.557 7.73498 139.59 7.62902 146.532 7.4171C149.729 7.31114 152.926 7.20518 156.123 7.20518C166.445 7.09923 176.858 6.99327 187.18 6.88731C197.958 6.88731 208.554 6.78135 219.059 6.78135Z" fill="white"/>
<path d="M19 25C19.2761 25 19.5 24.7335 19.5 24.4048C19.5 24.0761 19.2761 23.8096 19 23.8096C18.7239 23.8096 18.5 24.0761 18.5 24.4048C18.5 24.7335 18.7239 25 19 25Z" fill="white"/>
</svg>
